Coordinates
version=1
nRows=21
nColumns=34
inDegrees=no

Units are S.I. units (second, meters, Newtons, ...)
If the header above contains a line with 'inDegrees', this indicates whether rotational values are in degrees (yes) or radians (no).

endheader
time	pelvis_tilt	pelvis_list	pelvis_rotation	pelvis_tx	pelvis_ty	pelvis_tz	hip_flexion_r	hip_adduction_r	hip_rotation_r	knee_angle_r	ankle_angle_r	subtalar_angle_r	mtp_angle_r	hip_flexion_l	hip_adduction_l	hip_rotation_l	knee_angle_l	ankle_angle_l	subtalar_angle_l	mtp_angle_l	lumbar_extension	lumbar_bending	lumbar_rotation	arm_flex_r	arm_add_r	arm_rot_r	elbow_flex_r	pro_sup_r	arm_flex_l	arm_add_l	arm_rot_l	elbow_flex_l	pro_sup_l
0.9	0.0210264	0.0227884	-0.0477981	1.01955	0.961678	-0.212212	0.495917	-0.0414488	-0.0673183	0.912246	0.10644	-0.0867372	-0.00741995	0.058241	-0.0732263	-0.261288	0.391868	0.317461	0.0547369	-0.0203723	-0.213142	-0.284047	-0.0714542	0.00762215	-0.241552	-0.0305159	0.758143	1.6944	0.267609	-0.300447	-0.0383096	0.496777	1.96622
0.91	0.0189759	0.0186663	-0.0494675	1.03007	0.962828	-0.212388	0.496987	-0.0357375	-0.0731327	0.849793	0.100951	-0.0777482	-0.00750707	0.0346961	-0.0730546	-0.267247	0.366184	0.316641	0.0637142	-0.0203399	-0.210116	-0.27432	-0.0786742	0.000713811	-0.243296	-0.0305942	0.759672	1.69021	0.272839	-0.299188	-0.0346367	0.517719	1.95934
0.92	0.0160709	0.0152414	-0.0508807	1.04059	0.963588	-0.212557	0.497591	-0.0309458	-0.0779559	0.784962	0.0959532	-0.0660249	-0.00759418	0.012533	-0.072104	-0.272805	0.341356	0.316335	0.0725826	-0.0203075	-0.206334	-0.265014	-0.0859045	-0.0065761	-0.245452	-0.0310426	0.762086	1.68687	0.277766	-0.299252	-0.0263607	0.54	1.95083
0.93	0.0125671	0.0126632	-0.052134	1.05114	0.963956	-0.212709	0.497641	-0.0271424	-0.0813546	0.718166	0.0917294	-0.0517481	-0.00768126	-0.00864658	-0.0701931	-0.27784	0.317184	0.316499	0.0810743	-0.0202751	-0.202056	-0.256357	-0.0930644	-0.0141108	-0.247896	-0.031935	0.765166	1.68451	0.282524	-0.300578	-0.0142812	0.563455	1.94144
0.94	0.00876218	0.0109807	-0.0533138	1.06171	0.963939	-0.212838	0.496982	-0.0243246	-0.0829258	0.649879	0.0885277	-0.0352295	-0.00776832	-0.0293	-0.067236	-0.282217	0.293441	0.317053	0.0889366	-0.0202427	-0.197584	-0.248457	-0.100062	-0.0217197	-0.250534	-0.0333158	0.768679	1.68308	0.287252	-0.303064	0.000807409	0.587852	1.93196
0.95	0.00496559	0.0101409	-0.054491	1.07233	0.963556	-0.212935	0.495436	-0.0224204	-0.0823339	0.580681	0.0865104	-0.016903	-0.00785536	-0.0498776	-0.0632605	-0.28581	0.269938	0.317898	0.0959532	-0.0202104	-0.193234	-0.241299	-0.106798	-0.0292088	-0.253302	-0.035202	0.772387	1.68236	0.292092	-0.306567	0.0181585	0.61289	1.92314
0.96	0.00146551	0.00999827	-0.0557155	1.08299	0.962831	-0.212991	0.492853	-0.0212983	-0.0793541	0.511311	0.0857194	0.00268464	-0.00794239	-0.0707536	-0.0584139	-0.288522	0.246585	0.318939	0.101968	-0.020178	-0.189307	-0.234758	-0.113177	-0.0363744	-0.256165	-0.0375927	0.776047	1.68203	0.297183	-0.310912	0.0370959	0.638218	1.91559
0.97	-0.00150396	0.0103333	-0.0570121	1.09371	0.961795	-0.212998	0.489164	-0.0207818	-0.0739163	0.442706	0.0860673	0.0228899	-0.00802939	-0.0921646	-0.0529563	-0.290321	0.223446	0.320117	0.106914	-0.0201457	-0.186053	-0.228616	-0.119111	-0.0430186	-0.259097	-0.0404817	0.779418	1.68165	0.302653	-0.315894	0.0570213	0.663466	1.90965
0.98	-0.00378788	0.0108752	-0.0583762	1.1045	0.960477	-0.212945	0.484417	-0.020664	-0.0661421	0.376023	0.0873474	0.0430008	-0.00811638	-0.114169	-0.0472452	-0.29126	0.200763	0.321426	0.110834	-0.0201134	-0.183645	-0.222598	-0.124538	-0.048964	-0.262075	-0.0438711	0.782257	1.68077	0.308598	-0.321288	0.0774092	0.688266	1.90541
0.99	-0.00532363	0.0113266	-0.0597725	1.11536	0.958915	-0.212822	0.478794	-0.0207181	-0.0563637	0.31263	0.0892542	0.0622747	-0.00820335	-0.136635	-0.0417134	-0.291509	0.178964	0.322936	0.113903	-0.0200811	-0.182169	-0.216393	-0.129417	-0.0540667	-0.265066	-0.0477811	0.784329	1.67893	0.315079	-0.326863	0.0977969	0.712284	1.90265
1	-0.00613799	0.0113855	-0.0611361	1.1263	0.957143	-0.212614	0.472607	-0.0207013	-0.0451161	0.254046	0.0914015	0.0799809	-0.0082903	-0.159259	-0.036844	-0.291361	0.158634	0.324785	0.116428	-0.0200488	-0.181626	-0.209684	-0.133735	-0.058225	-0.268023	-0.0522527	0.785407	1.67571	0.322103	-0.332383	0.11777	0.735229	1.90096
1.01	-0.00632806	0.010763	-0.0623779	1.13731	0.955204	-0.212311	0.46626	-0.0203537	-0.0330969	0.201847	0.09333	0.0954392	-0.00837724	-0.181617	-0.033144	-0.291223	0.140462	0.327165	0.118832	-0.0200165	-0.18195	-0.202163	-0.137501	-0.0613848	-0.270879	-0.0573439	0.785285	1.67076	0.329621	-0.337625	0.136954	0.756862	1.89983
1.02	-0.00603427	0.009193	-0.0633919	1.14841	0.953135	-0.211902	0.460191	-0.0193978	-0.021097	0.157515	0.0945033	0.108047	-0.00846417	-0.203222	-0.0311185	-0.291585	0.125176	0.330287	0.121611	-0.0199842	-0.183028	-0.193543	-0.140735	-0.0635399	-0.27356	-0.0631185	0.783783	1.66391	0.337523	-0.34238	0.154999	0.777001	1.89876
1.03	-0.00540953	0.00643809	-0.0640656	1.15958	0.950979	-0.211375	0.454811	-0.0175421	-0.00991639	0.12228	0.0943096	0.117301	-0.00855109	-0.2236	-0.0312443	-0.292966	0.113463	0.334331	0.125274	-0.019952	-0.184725	-0.183568	-0.143461	-0.0647287	-0.275984	-0.0696321	0.780756	1.65513	0.345645	-0.346464	0.171585	0.795518	1.89741
1.04	-0.00459039	0.00229589	-0.0642899	1.17084	0.948776	-0.21072	0.450435	-0.0144959	-0.000283269	0.0969542	0.0920855	0.122829	-0.008638	-0.242349	-0.0339426	-0.295829	0.105909	0.339392	0.13025	-0.0199197	-0.186916	-0.172021	-0.145696	-0.0650277	-0.278075	-0.0769195	0.776092	1.64463	0.353774	-0.349718	0.18642	0.812334	1.89564
1.05	-0.00367571	-0.00339251	-0.063968	1.18218	0.946563	-0.20993	0.447235	-0.009994	0.00720348	0.0818148	0.0871806	0.124429	-0.0087249	-0.25918	-0.0395498	-0.300493	0.102946	0.345422	0.136782	-0.0198875	-0.189495	-0.158741	-0.147447	-0.0645426	-0.27977	-0.084986	0.769714	1.63283	0.361669	-0.352016	0.199254	0.827412	1.89359
1.06	-0.00271234	-0.0107261	-0.0630216	1.19364	0.944409	-0.208993	0.44522	-0.00382757	0.012103	0.0765418	0.0790647	0.122109	-0.00881179	-0.273933	-0.0482915	-0.307036	0.104834	0.352184	0.144822	-0.0198553	-0.192385	-0.143631	-0.148707	-0.0633982	-0.28102	-0.0938042	0.761579	1.62034	0.369075	-0.353266	0.209898	0.84075	1.8916
1.07	-0.00170291	-0.0197356	-0.0613931	1.20522	0.942362	-0.207905	0.444241	0.00412227	0.014136	0.0802463	0.0674619	0.116128	-0.00889867	-0.286551	-0.0602575	-0.315229	0.111672	0.359219	0.153949	-0.0198231	-0.195533	-0.126682	-0.149461	-0.0617279	-0.28179	-0.103317	0.751668	1.60789	0.375748	-0.353415	0.218245	0.852371	1.8902
1.08	-0.000620282	-0.0303691	-0.059047	1.21693	0.940462	-0.206664	0.444035	0.013859	0.0131746	0.0915785	0.052479	0.106994	-0.00898554	-0.297031	-0.075386	-0.324496	0.123438	0.365834	0.163325	-0.0197909	-0.19889	-0.107981	-0.149689	-0.0596632	-0.282061	-0.113441	0.739984	1.59622	0.381468	-0.352449	0.224283	0.862314	1.88993
1.09	0.000566781	-0.0424855	-0.0559712	1.22878	0.938745	-0.205272	0.444287	0.0252573	0.00923284	0.108904	0.0346887	0.0954323	-0.00907239	-0.30535	-0.0934589	-0.333938	0.140052	0.371116	0.171717	-0.0197587	-0.202394	-0.0877235	-0.149378	-0.0573257	-0.281823	-0.12408	0.726551	1.58604	0.386055	-0.350396	0.228112	0.87063	1.89132
1.1	0.00186384	-0.0558537	-0.0521807	1.24078	0.937237	-0.203733	0.4447	0.0380658	0.00246168	0.13051	0.0151363	0.0823092	-0.00915924	-0.311391	-0.11411	-0.342418	0.161436	0.373964	0.177596	-0.0197266	-0.205942	-0.0662103	-0.148521	-0.05482	-0.281072	-0.13512	0.71141	1.57787	0.389381	-0.347321	0.229941	0.877373	1.89468
